# xmcd
#
# Track frame offsets: 
#        225
#        15585
#        30815
#        45868
#
# Disc length: 849 seconds
#
# Revision: 3
# Processed by: cddbd v1.5.2PL0 Copyright (c) Steve Scherf et al.
# Submitted via: ExactAudioCopy v0.99pb4
#
DISCID=19034e04
DTITLE=Sun21 - El Cuarto de Tula
DYEAR=2000
DGENRE=Salsa
TTITLE0=El Cuarto de Tula
TTITLE1=Toda mi vida
TTITLE2=Si llegara el amor a mí
TTITLE3=El Cuarto de Tula (Remix)
EXTD=
EXTT0=
EXTT1=
EXTT2=
EXTT3=
PLAYORDER=
